<svg class="svg-icon" style="width: 1em; height: 1em;vertical-align: middle;fill: currentColor;overflow: hidden;" viewBox="0 0 1024 1024" version="1.1" xmlns="http://www.w3.org/2000/svg"><path d="M340.5 919.5H184.4c-14.3 0-26-11.6-26-26V803h208v90.6c0.1 14.3-11.5 25.9-25.9 25.9z" fill="#54D3CC" /><path d="M340.5 934.5H184.4c-22.6 0-41-18.4-41-41V788h238v105.6c0.1 22.6-18.3 40.9-40.9 40.9zM173.5 818v75.6c0 6 4.9 11 11 11h156.1c6 0 11-4.9 11-11V818H173.5z" fill="#2A4964" /><path d="M839.5 919.5H683.4c-14.3 0-26-11.6-26-26V803h208v90.6c0.1 14.3-11.5 25.9-25.9 25.9z" fill="#54D3CC" /><path d="M839.5 934.5H683.4c-22.6 0-41-18.4-41-41V788h238v105.6c0.1 22.6-18.3 40.9-40.9 40.9zM672.5 818v75.6c0 6 4.9 11 11 11h156.1c6 0 11-4.9 11-11V818H672.5z" fill="#2A4964" /><path d="M933 870H90c-6.6 0-12-5.4-12-12V104.4c0-6.6 5.4-12 12-12h843c6.6 0 12 5.4 12 12V858c0 6.6-5.4 12-12 12z" fill="#54D3CC" /><path d="M933 885H90c-14.9 0-27-12.1-27-27V104.4c0-14.9 12.1-27 27-27h843c14.9 0 27 12.1 27 27V858c0 14.9-12.1 27-27 27zM93 855h837V107.4H93V855z" fill="#2A4964" /><path d="M870.1 765H153c-6.6 0-12-5.4-12-12V161.2c0-6.6 5.4-12 12-12h717.1c6.6 0 12 5.4 12 12V753c0 6.6-5.4 12-12 12z" fill="#DDF0F0" /><path d="M870.1 780H153c-14.9 0-27-12.1-27-27V161.2c0-14.9 12.1-27 27-27h717.1c14.9 0 27 12.1 27 27V753c0 14.9-12.1 27-27 27zM156 750h711.1V164.2H156V750z" fill="#2A4964" /><path d="M208.1 827.8h-63.5c-8.3 0-15-6.7-15-15s6.7-15 15-15h63.5c8.3 0 15 6.7 15 15s-6.7 15-15 15zM331.6 827.8h-63.5c-8.3 0-15-6.7-15-15s6.7-15 15-15h63.5c8.3 0 15 6.7 15 15s-6.8 15-15 15z" fill="#294966" /><path d="M148 519.1h154.9c5.8 0 9.6-3.8 11.6-8.8 8.6-21.4 17.1-42.7 25.7-64.1 13.7-34.1 27.4-68.2 41-102.3 3.2-7.9 6.3-15.8 9.5-23.7h-23.1c7 26.6 14.1 53.1 21.1 79.7 11.3 42.5 22.5 85 33.8 127.5 2.6 9.7 5.1 19.4 7.7 29.1 3.2 11.9 19.5 10.9 23.1 0 13.7-41.3 27.4-82.7 41.2-124 1.9-5.8 3.8-11.6 5.8-17.3-7.3 1-14.6 1.9-21.9 2.9l44.4 83.1c2.1 4 4.3 8 6.4 12 4.1 7.6 16.7 8 20.7 0 16-32.1 31.9-64.2 47.9-96.2l6.9-13.8H584c14.8 32.2 29.7 64.3 44.5 96.5 2.1 4.5 4.2 9.1 6.3 13.6 1.7 3.7 6.5 5.9 10.4 5.9h227.4c15.4 0 15.5-24 0-24H645.2c3.5 2 6.9 4 10.4 5.9-14.8-32.2-29.7-64.3-44.5-96.5-2.1-4.5-4.2-9.1-6.3-13.6-3.7-8-16.9-7.7-20.7 0-16 32.1-31.9 64.2-47.9 96.2l-6.9 13.8H550l-44.4-83.1c-2.1-4-4.3-8-6.4-12-5.1-9.6-18.8-6.5-21.9 2.9-13.7 41.3-27.4 82.7-41.2 124-1.9 5.8-3.8 11.6-5.8 17.3h23.1c-7-26.6-14.1-53.1-21.1-79.7-11.3-42.5-22.5-85-33.8-127.5-2.6-9.7-5.1-19.4-7.7-29.1-1.3-5.1-6.3-8.8-11.6-8.8-5.7 0-9.6 3.8-11.6 8.8-8.6 21.4-17.1 42.7-25.7 64.1-13.7 34.1-27.4 68.2-41 102.3-3.2 7.9-6.3 15.8-9.5 23.7 3.9-2.9 7.7-5.9 11.6-8.8H148.1c-15.6 0-15.6 24-0.1 24z" fill="#2A4964" /><path d="M800.5 242.1V627" fill="#F25168" /><path d="M782.5 242.1v337.4c0 15.6-0.5 31.3 0 46.9v0.7c0 9.4 8.3 18.4 18 18 9.8-0.4 18-7.9 18-18v-38.4V497 385.6v-95.9c0-15.6 0.5-31.3 0-46.9v-0.7c0-9.4-8.3-18.4-18-18-9.8 0.4-18 7.9-18 18z" fill="#FFFFFF" /></svg>